<?xml version="1.0" encoding="UTF-8" standalone="no"?>
<svg
   viewBox="0 0 720 720"
   shape-rendering="geometricPrecision"
   text-rendering="geometricPrecision"
   image-rendering="optimizeQuality"
   fill-rule="evenodd"
   clip-rule="evenodd"
   version="1.1"
   id="svg1"
   sodipodi:docname="deviantart-round-color-icon.svg"
   width="720"
   height="720"
   xmlns:inkscape="http://www.inkscape.org/namespaces/inkscape"
   xmlns:sodipodi="http://sodipodi.sourceforge.net/DTD/sodipodi-0.dtd"
   xmlns="http://www.w3.org/2000/svg"
   xmlns:svg="http://www.w3.org/2000/svg">
  <defs
     id="defs1" />
  <sodipodi:namedview
     id="namedview1"
     pagecolor="#ffffff"
     bordercolor="#000000"
     borderopacity="0"
     inkscape:showpageshadow="2"
     inkscape:pageopacity="0.0"
     inkscape:pagecheckerboard="0"
     inkscape:deskcolor="#f2f2f2"
     showborder="true" />
  <path
     d="m 266.85,12.35 c 192,-51.44 389.35,62.5 440.8,254.5 51.44,192 -62.5,389.35 -254.5,440.8 -192,51.44 -389.35,-62.5 -440.8,-254.5 -51.44,-192 62.5,-389.35 254.5,-440.8 z m 179.6,193.01 -18.78,-70.09 -70.09,18.78 -5.11,8.96 -16.24,71.92 -8.49,9.78 -118.06,31.64 25.78,96.22 64.9,-17.4 7.69,5.45 -34.49,154.02 18.78,70.09 70.09,-18.78 5.11,-8.97 16.24,-71.9 8.49,-9.78 118.05,-31.64 -25.77,-96.22 -64.9,17.39 -7.71,-5.53 34.51,-153.93 z"
     fill="#05cc47"
     id="path1"
     style="fill:#daa520;fill-opacity:1;stroke-width:0.00215946" />
</svg>
