<?xml version="1.0" encoding="UTF-8" standalone="no"?>
<svg
   height="49.247997"
   id="Layer_1"
   version="1.1"
   viewBox="0 0 49.248996 49.247996"
   width="49.248997"
   xml:space="preserve"
   sodipodi:docname="1181205_gmail_google_mail_icon.svg"
   xmlns:inkscape="http://www.inkscape.org/namespaces/inkscape"
   xmlns:sodipodi="http://sodipodi.sourceforge.net/DTD/sodipodi-0.dtd"
   xmlns="http://www.w3.org/2000/svg"
   xmlns:svg="http://www.w3.org/2000/svg"><defs
     id="defs4" /><sodipodi:namedview
     id="namedview4"
     pagecolor="#ffffff"
     bordercolor="#000000"
     borderopacity="0.25"
     inkscape:showpageshadow="2"
     inkscape:pageopacity="0.0"
     inkscape:pagecheckerboard="0"
     inkscape:deskcolor="#d1d1d1" /><polygon
     points="39.309,24.8362 34.9235,27.8569 29.3938,31.666 39.309,38.5604 "
     id="polygon1"
     style="fill:#daa520;fill-opacity:1"
     transform="translate(-3.7222,-3.9229001)" /><path
     d="M 24.625,-5.3962437e-8 C 11.0254,-5.3962437e-8 0,11.0234 0,24.623 0,38.2227 11.0254,49.248 24.625,49.248 38.2236,49.248 49.249,38.2227 49.249,24.623 49.249,11.0234 38.2236,-5.3962435e-8 24.625,-5.3962437e-8 Z M 36.1919,35.7865 v 7e-4 H 13.0552 12.1848 c -1.3447,0 -2.4451,-1.1003 -2.4451,-2.4451 V 16.6398 c 0,-1.3448 1.1003,-2.4451 2.4451,-2.4451 l 0.0096,0.0072 -0.0096,-0.0078 h 24.9518 c 1.3447,0 2.445,1.1002 2.445,2.4449 v 0.7087 l 7e-4,-5e-4 -7e-4,7e-4 0.004,15.9963 c -0.0584,1.778 -0.8288,2.4126 -3.3937,2.4423 z"
     id="path1"
     style="fill:#daa520;fill-opacity:1" /><path
     d="m 24.6199,28.3393 c -0.1196,0 -0.2391,-0.0359 -0.3419,-0.1073 L 24.0994,28.1076 13.9159,35.1887 H 35.3312 L 25.1449,28.1058 c 0,0 -0.4064,0.2335 -0.525,0.2335 z"
     id="path2"
     style="fill:#daa520;fill-opacity:1" /><polygon
     points="40.8565,18.1187 40.858,18.1176 40.8587,18.117 "
     id="polygon2"
     style="fill:#daa520;fill-opacity:1"
     transform="translate(-3.7222,-3.9229001)" /><polygon
     points="28.3432,26.5924 39.037,18.7154 17.7191,18.7154 "
     id="polygon3"
     style="fill:#daa520;fill-opacity:1"
     transform="translate(-3.7222,-3.9229001)" /><polygon
     points="17.3764,38.5647 27.2976,31.666 27.2877,31.659 17.382,24.8359 "
     id="polygon4"
     style="fill:#daa520;fill-opacity:1"
     transform="translate(-3.7222,-3.9229001)" /></svg>
