<?xml version="1.0" encoding="UTF-8" standalone="no"?>
<svg
   height="72"
   viewBox="0 0 72 72"
   width="72"
   version="1.1"
   id="svg2"
   sodipodi:docname="LinkedIn_icon_circle.svg"
   xmlns:inkscape="http://www.inkscape.org/namespaces/inkscape"
   xmlns:sodipodi="http://sodipodi.sourceforge.net/DTD/sodipodi-0.dtd"
   xmlns="http://www.w3.org/2000/svg"
   xmlns:svg="http://www.w3.org/2000/svg">
  <defs
     id="defs2" />
  <sodipodi:namedview
     id="namedview2"
     pagecolor="#ffffff"
     bordercolor="#000000"
     borderopacity="0.25"
     inkscape:showpageshadow="2"
     inkscape:pageopacity="0.0"
     inkscape:pagecheckerboard="0"
     inkscape:deskcolor="#d1d1d1" />
  <g
     fill="none"
     fill-rule="evenodd"
     id="g2">
    <path
       id="path1"
       d="M 36,0 C 16.117769,0 0,16.117769 0,36 0,55.882231 16.117769,72 36,72 55.882231,72 72,55.882231 72,36 72,16.117769 55.882231,0 36,0 Z M 20.373047,13 c 2.967705,0 5.371094,2.422947 5.371094,5.412109 0,2.989163 -2.403389,5.414063 -5.371094,5.414063 C 17.405342,23.826172 15,21.401272 15,18.412109 15,15.422947 17.405342,13 20.373047,13 Z M 48.324219,26.769531 C 54.546088,26.769531 59,30.56973 59,38.427734 V 57 H 49.958984 V 41.601562 c 0,-4.221762 -1.603779,-6.580078 -4.945312,-6.580078 -3.635153,0 -5.535156,2.454233 -5.535156,6.580078 V 57 H 30.767578 V 27.666016 h 8.710938 v 3.951172 c 0,0 2.620969,-4.847657 8.845703,-4.847657 z m -32.451172,0.896485 h 9.085937 V 57 h -9.085937 z"
       style="fill:#daa520;fill-opacity:1" />
  </g>
</svg>
