<?xml version="1.0" encoding="UTF-8" standalone="no"?>
<!-- Created with Inkscape (http://www.inkscape.org/) -->

<svg
   version="1.1"
   id="svg1"
   width="1080.5068"
   height="1079.0209"
   viewBox="0 0 1080.5068 1079.0209"
   sodipodi:docname="ozi_logo.png"
   inkscape:export-filename="..\vector_logos\ozi_logo.svg"
   inkscape:export-xdpi="96"
   inkscape:export-ydpi="96"
   xml:space="preserve"
   xmlns:inkscape="http://www.inkscape.org/namespaces/inkscape"
   xmlns:sodipodi="http://sodipodi.sourceforge.net/DTD/sodipodi-0.dtd"
   xmlns="http://www.w3.org/2000/svg"
   xmlns:svg="http://www.w3.org/2000/svg"><defs
     id="defs1" /><sodipodi:namedview
     id="namedview1"
     pagecolor="#ffffff"
     bordercolor="#000000"
     borderopacity="0.25"
     inkscape:showpageshadow="2"
     inkscape:pageopacity="0.0"
     inkscape:pagecheckerboard="0"
     inkscape:deskcolor="#d1d1d1" /><g
     inkscape:groupmode="layer"
     inkscape:label="Image"
     id="g1"
     transform="translate(0.25343013,-0.4895575)"><path
       style="fill:#daa520;fill-opacity:1"
       d="M 504.95665,1078.2866 C 123.06913,1053.032 -112.97833,647.30567 54.386017,303.83065 c 197.077843,-404.45479 774.063423,-404.45479 971.141183,0 180.5029,370.43866 -109.34728,801.65055 -520.57055,774.45595 z m 21.5,-77.3589 C 335.11239,942.11188 200.18438,768.54943 187.87638,565.40047 l -1.18142,-19.5 0.63158,-17.5 c 2.2702,-62.90308 20.99301,-125.01849 52.59773,-174.5 3.86424,-6.05 7.44361,-11.67125 7.95414,-12.49167 1.64217,-2.63895 1.84501,-0.71664 1.00158,9.49167 -15.86541,192.0228 102.54245,384.22279 282.8551,459.13124 l 8.27843,3.43917 10.72157,-4.62623 c 37.23369,-16.06591 75.43612,-39.22146 108.72156,-65.89914 l 15,-12.02224 19.11034,-19.0114 C 771.01802,634.86183 816.00288,542.65829 829.11998,434.07475 l 2.19549,-18.17428 0.0706,-33.5 c 0.0388,-18.425 -0.27223,-35.4125 -0.69123,-37.75 -1.17186,-6.53755 0.18885,-5.25344 8.47724,8 32.14984,51.40876 49.18514,105.94194 52.92609,169.42638 l 1.18894,20.17639 -1.14656,20.3659 C 880.82887,763.54333 750.75532,934.95916 561.95665,997.74793 l -18.5,6.15257 12.5,-0.297 C 794.39948,997.93847 991.93676,802.67638 1003.921,560.79868 l 0.8868,-17.89821 -0.9277,-20 C 992.50803,277.72872 803.39981,86.489953 561.45665,75.492531 c -21.30433,-0.968379 -21.14976,-0.985551 -15.84691,1.760538 6.38122,3.304519 26.41781,17.05297 39.51928,27.116841 l 12.32763,9.46944 18.07738,18.03056 c 57.61618,57.46696 91.01361,125.21089 102.06504,207.03056 l 1.75592,13 0.0367,31 0.0367,31 -1.77799,12 C 700.95209,538.60106 636.13056,636.29021 544.42412,686.9608 l -5.03254,2.78062 -10.96746,-6.86781 C 307.07197,544.26323 302.41324,231.37406 519.54616,86.614358 c 6.55077,-4.367313 13.41481,-8.710247 15.25342,-9.650966 4.7402,-2.425305 4.71653,-2.427339 -16.84293,-1.447341 C 287.49926,85.991625 103.15014,261.23639 77.310268,494.40047 l -1.717752,15.5 0.02533,27 c 0.131667,140.32937 56.482624,263.56405 162.838804,356.11447 74.86635,65.14818 177.71854,105.89534 278.5,110.33396 9.075,0.3996 17.4,0.7792 18.5,0.8433 1.1,0.064 -2.95,-1.4048 -9,-3.2645 z"
       id="path1" /></g></svg>
