<?xml version="1.0" encoding="UTF-8" standalone="no"?>
<svg
   height="751"
   width="751"
   viewBox="0.253 0.277 167.75147 167.483"
   version="1.1"
   id="svg1"
   sodipodi:docname="spotify-logo.svg"
   inkscape:export-filename="..\..\OneDrive\Belgeler\website\vector_logos\spotify.svg"
   inkscape:export-xdpi="96"
   inkscape:export-ydpi="96"
   xmlns:inkscape="http://www.inkscape.org/namespaces/inkscape"
   xmlns:sodipodi="http://sodipodi.sourceforge.net/DTD/sodipodi-0.dtd"
   xmlns="http://www.w3.org/2000/svg"
   xmlns:svg="http://www.w3.org/2000/svg">
  <defs
     id="defs1" />
  <sodipodi:namedview
     id="namedview1"
     pagecolor="#ffffff"
     bordercolor="#000000"
     borderopacity="0.25"
     inkscape:showpageshadow="2"
     inkscape:pageopacity="0.0"
     inkscape:pagecheckerboard="0"
     inkscape:deskcolor="#d1d1d1" />
  <path
     d="m 84.128235,0.277 c -46.249,0 -83.743,37.493 -83.743,83.742 0,46.251 37.494,83.741 83.743,83.741 46.253995,0 83.744005,-37.49 83.744005,-83.741 0,-46.246 -37.49001,-83.738 -83.745005,-83.738 z m 38.404005,120.78 c -1.50311,2.46301 -4.72007,3.23812 -7.18001,1.73 -19.661995,-12.01 -44.413995,-14.73 -73.563995,-8.07 -2.810643,0.63914 -5.607607,-1.11987 -6.249,-3.93 -0.6453,-2.81063 1.113895,-5.61118 3.926,-6.25 31.9,-7.288 59.263,-4.15 81.337005,9.34 2.46,1.51 3.24,4.72 1.73,7.18 z m 10.25,-22.802 c -1.89,3.072 -5.91,4.042 -8.98001,2.152 -22.51,-13.836 -56.822995,-17.843 -83.447995,-9.761 -3.453,1.043 -7.1,-0.903 -8.148,-4.35 -1.041191,-3.450445 0.906308,-7.092726 4.354,-8.143 30.413,-9.228 68.222005,-4.758 94.071995,11.127 3.07,1.89 4.04,5.91 2.15001,8.976 z m 0.87999,-23.744 C 106.67224,58.48 62.142235,57.006 36.373235,64.827 c -4.138,1.255 -8.514,-1.081 -9.768,-5.219 -1.255629,-4.139846 1.081596,-8.513916 5.221,-9.771 29.581,-8.98 78.755995,-7.245 109.829995,11.202 3.72516,2.203693 4.95302,7.013369 2.74001,10.733 -2.2,3.722 -7.02001,4.949 -10.73,2.739 z"
     fill="#1ed760"
     id="path1"
     sodipodi:nodetypes="csssccccccccccccccccccccccccc"
     style="fill:#daa520;fill-opacity:1"
     inkscape:label="path1" />
</svg>
